<svg width="26" height="36" viewBox="0 0 26 36" fill="none" xmlns="http://www.w3.org/2000/svg">
<path d="M14.812 11.6H24.124V14.8H18.332V21.04H22.876V24.24H18.332V34H14.812V11.6Z" fill="white"/>
<path d="M11.188 11.6H1.876V14.8H7.668V21.04H3.124V24.24H7.668V34H11.188V11.6Z" fill="white"/>
<path d="M7.59325 1.60002H11.1133V10.72H14.8893V1.60002H18.4093V24H14.8893V13.92H11.1133V24H7.59325V1.60002Z" fill="white"/>
<rect x="2.5" y="12.5" width="21" height="21" stroke="white" stroke-width="3"/>
<path d="M18 7.00002C18 8.10459 14.1046 13 13 13C11.8954 13 8 8.10459 8 7.00002C8 5.89545 11.8954 9.00004 13 9.00004C14.1046 9.00004 18 5.89545 18 7.00002Z" fill="white"/>
<path d="M8 6.00002C8 4.89545 11.8954 1.43051e-06 13 1.43051e-06C14.1046 1.43051e-06 18 4.89545 18 6.00002C18 7.10459 14.1046 4 13 4C11.8954 4 8 7.10459 8 6.00002Z" fill="white"/>
</svg>
